# xmcd CD database file
#
# Track frame offsets:
#	150
#	13695
#	34002
#	52187
#	66615
#	83645
#	97845
#	130160
#	144465
#	157635
#	180447
#	194182
#	220430
#	240830
#
# Disc length: 3413 seconds
#
# Revision: 1
# Processed by: cddbd v1.5PL3 Copyright (c) Steve Scherf et al.
# Submitted via: CDex 1.50beta10
#
DISCID=bc0d530e
DTITLE=Johnny Whitehill - Guitar Slinger
DYEAR=1998
DGENRE=Blues
TTITLE0=Hold On
TTITLE1=Easy
TTITLE2=Guitar Slinger
TTITLE3=Since You've Been Gone
TTITLE4=I'm Tired
TTITLE5=West End Blues
TTITLE6=Muddy's Blues
TTITLE7=Guitar Swinger
TTITLE8=No More Trouble
TTITLE9=Sun Is Shining
TTITLE10=Bone Picking
TTITLE11=As the Years Go Passing By
TTITLE12=Guilty
TTITLE13=Blow Wind Blow
EXTD=YEAR: 1998
EXTT0=
EXTT1=
EXTT2=
EXTT3=
EXTT4=
EXTT5=
EXTT6=
EXTT7=
EXTT8=
EXTT9=
EXTT10=
EXTT11=
EXTT12=
EXTT13=
PLAYORDER=
